<svg width="181" height="31" viewBox="0 0 181 31" fill="none" xmlns="http://www.w3.org/2000/svg">
<rect width="180.96" height="30.576" rx="15.288" fill="white"/>
<path d="M78.93 14.39C78.7167 14.2167 78.5033 14.09 78.29 14.01C78.0767 13.9233 77.87 13.88 77.67 13.88C77.4167 13.88 77.21 13.94 77.05 14.06C76.89 14.18 76.81 14.3367 76.81 14.53C76.81 14.6633 76.85 14.7733 76.93 14.86C77.01 14.9467 77.1133 15.0233 77.24 15.09C77.3733 15.15 77.52 15.2033 77.68 15.25C77.8467 15.2967 78.01 15.3467 78.17 15.4C78.81 15.6133 79.2767 15.9 79.57 16.26C79.87 16.6133 80.02 17.0767 80.02 17.65C80.02 18.0367 79.9533 18.3867 79.82 18.7C79.6933 19.0133 79.5033 19.2833 79.25 19.51C79.0033 19.73 78.6967 19.9 78.33 20.02C77.97 20.1467 77.56 20.21 77.1 20.21C76.1467 20.21 75.2633 19.9267 74.45 19.36L75.29 17.78C75.5833 18.04 75.8733 18.2333 76.16 18.36C76.4467 18.4867 76.73 18.55 77.01 18.55C77.33 18.55 77.5667 18.4767 77.72 18.33C77.88 18.1833 77.96 18.0167 77.96 17.83C77.96 17.7167 77.94 17.62 77.9 17.54C77.86 17.4533 77.7933 17.3767 77.7 17.31C77.6067 17.2367 77.4833 17.17 77.33 17.11C77.1833 17.05 77.0033 16.9833 76.79 16.91C76.5367 16.83 76.2867 16.7433 76.04 16.65C75.8 16.55 75.5833 16.42 75.39 16.26C75.2033 16.1 75.05 15.9 74.93 15.66C74.8167 15.4133 74.76 15.1033 74.76 14.73C74.76 14.3567 74.82 14.02 74.94 13.72C75.0667 13.4133 75.24 13.1533 75.46 12.94C75.6867 12.72 75.96 12.55 76.28 12.43C76.6067 12.31 76.97 12.25 77.37 12.25C77.7433 12.25 78.1333 12.3033 78.54 12.41C78.9467 12.51 79.3367 12.66 79.71 12.86L78.93 14.39ZM84.0637 14.12V20H82.1037V14.12H80.4937V12.46H85.6737V14.12H84.0637ZM90.1939 17.2L89.3139 14.69L88.4339 17.2H90.1939ZM90.7139 18.69H87.9139L87.4639 20H85.3739L88.2439 12.46H90.3839L93.2539 20H91.1639L90.7139 18.69ZM95.9715 15.83H96.3415C96.7282 15.83 97.0248 15.75 97.2315 15.59C97.4382 15.43 97.5415 15.2 97.5415 14.9C97.5415 14.6 97.4382 14.37 97.2315 14.21C97.0248 14.05 96.7282 13.97 96.3415 13.97H95.9715V15.83ZM100.281 20H97.8415L95.9715 17.1V20H94.0115V12.46H97.0615C97.4815 12.46 97.8482 12.5233 98.1615 12.65C98.4748 12.77 98.7315 12.9367 98.9315 13.15C99.1382 13.3633 99.2915 13.61 99.3915 13.89C99.4982 14.17 99.5515 14.47 99.5515 14.79C99.5515 15.3633 99.4115 15.83 99.1315 16.19C98.8582 16.5433 98.4515 16.7833 97.9115 16.91L100.281 20ZM103.871 14.12V20H101.911V14.12H100.301V12.46H105.481V14.12H103.871Z" fill="#1847AE"/>
</svg>
