<svg width="127" height="38" viewBox="0 0 127 38" fill="none" xmlns="http://www.w3.org/2000/svg">
<path d="M10.75 14.85H24.9V0.3H34.7V38H24.9V22.45H10.75V38H0.95V0.3H10.75V14.85ZM63.5504 8.6H51.9004V14.9H62.9004V23.2H51.9004V29.7H63.5504V38H42.1004V0.3H63.5504V8.6ZM79.916 17.15H81.766C83.6993 17.15 85.1827 16.75 86.216 15.95C87.2493 15.15 87.766 14 87.766 12.5C87.766 11 87.2493 9.85 86.216 9.05C85.1827 8.25 83.6993 7.85 81.766 7.85H79.916V17.15ZM101.466 38H89.266L79.916 23.5V38H70.116V0.3H85.366C87.466 0.3 89.2994 0.616666 90.866 1.25C92.4327 1.85 93.716 2.68333 94.716 3.75C95.7494 4.81666 96.516 6.05 97.016 7.45C97.5494 8.85 97.816 10.35 97.816 11.95C97.816 14.8167 97.116 17.15 95.716 18.95C94.3493 20.7167 92.316 21.9167 89.616 22.55L101.466 38ZM126.515 8.6H114.865V14.9H125.865V23.2H114.865V29.7H126.515V38H105.065V0.3H126.515V8.6Z" fill="white"/>
</svg>
