<svg width="94" height="18" viewBox="0 0 94 18" fill="none" xmlns="http://www.w3.org/2000/svg">
<path d="M3.86 6.74V17H0.24V6.74H3.86ZM1.49012e-08 2.8C1.49012e-08 2.52 0.0533334 2.26 0.16 2.02C0.266667 1.76667 0.413333 1.54667 0.6 1.36C0.786667 1.17333 1 1.02667 1.24 0.92C1.49333 0.813333 1.76 0.759999 2.04 0.759999C2.32 0.759999 2.58 0.813333 2.82 0.92C3.07333 1.02667 3.29333 1.17333 3.48 1.36C3.66667 1.54667 3.81333 1.76667 3.92 2.02C4.02667 2.26 4.08 2.52 4.08 2.8C4.08 3.08 4.02667 3.34667 3.92 3.6C3.81333 3.84 3.66667 4.05333 3.48 4.24C3.29333 4.42667 3.07333 4.57333 2.82 4.68C2.58 4.78667 2.32 4.84 2.04 4.84C1.76 4.84 1.49333 4.78667 1.24 4.68C1 4.57333 0.786667 4.42667 0.6 4.24C0.413333 4.05333 0.266667 3.84 0.16 3.6C0.0533334 3.34667 1.49012e-08 3.08 1.49012e-08 2.8ZM9.49375 11.84C9.49375 12.1733 9.55375 12.4867 9.67375 12.78C9.79375 13.06 9.95375 13.3067 10.1538 13.52C10.3671 13.7333 10.6138 13.9 10.8938 14.02C11.1871 14.14 11.5004 14.2 11.8338 14.2C12.1538 14.2 12.4538 14.14 12.7338 14.02C13.0271 13.9 13.2738 13.7333 13.4738 13.52C13.6871 13.3067 13.8538 13.06 13.9738 12.78C14.1071 12.5 14.1738 12.2 14.1738 11.88C14.1738 11.56 14.1071 11.26 13.9738 10.98C13.8538 10.6867 13.6871 10.4333 13.4738 10.22C13.2738 10.0067 13.0271 9.84 12.7338 9.72C12.4538 9.6 12.1538 9.54 11.8338 9.54C11.5138 9.54 11.2071 9.6 10.9138 9.72C10.6338 9.84 10.3871 10.0067 10.1738 10.22C9.97375 10.4333 9.80708 10.68 9.67375 10.96C9.55375 11.2267 9.49375 11.52 9.49375 11.84ZM14.0538 0.399999H17.6938V17H14.0538V15.86C13.2804 16.8333 12.2338 17.32 10.9138 17.32C10.1671 17.32 9.48042 17.18 8.85375 16.9C8.22708 16.62 7.68042 16.2333 7.21375 15.74C6.74708 15.2467 6.38042 14.6667 6.11375 14C5.86042 13.3333 5.73375 12.6133 5.73375 11.84C5.73375 11.1067 5.85375 10.4133 6.09375 9.76C6.34708 9.09333 6.70042 8.51333 7.15375 8.02C7.60708 7.52667 8.14708 7.14 8.77375 6.86C9.41375 6.56667 10.1138 6.42 10.8738 6.42C12.1538 6.42 13.2138 6.86667 14.0538 7.76V0.399999ZM27.4572 10.38C27.3372 9.87333 27.0905 9.46667 26.7172 9.16C26.3439 8.85333 25.8905 8.7 25.3572 8.7C24.7972 8.7 24.3372 8.84667 23.9772 9.14C23.6305 9.43333 23.4105 9.84667 23.3172 10.38H27.4572ZM23.2172 12.48C23.2172 14.04 23.9505 14.82 25.4172 14.82C26.2039 14.82 26.7972 14.5 27.1972 13.86H30.6972C29.9905 16.2067 28.2239 17.38 25.3972 17.38C24.5305 17.38 23.7372 17.2533 23.0172 17C22.2972 16.7333 21.6772 16.36 21.1572 15.88C20.6505 15.4 20.2572 14.8267 19.9772 14.16C19.6972 13.4933 19.5572 12.7467 19.5572 11.92C19.5572 11.0667 19.6905 10.3 19.9572 9.62C20.2239 8.92667 20.6039 8.34 21.0972 7.86C21.5905 7.38 22.1839 7.01333 22.8772 6.76C23.5839 6.49333 24.3772 6.36 25.2572 6.36C26.1239 6.36 26.9039 6.49333 27.5972 6.76C28.2905 7.01333 28.8772 7.38667 29.3572 7.88C29.8372 8.37333 30.2039 8.98 30.4572 9.7C30.7105 10.4067 30.8372 11.2067 30.8372 12.1V12.48H23.2172ZM36.0664 11.84C36.0664 12.1733 36.1264 12.4867 36.2464 12.78C36.3664 13.06 36.5264 13.3067 36.7264 13.52C36.9397 13.7333 37.1864 13.9 37.4664 14.02C37.7597 14.14 38.0731 14.2 38.4064 14.2C38.7264 14.2 39.0264 14.14 39.3064 14.02C39.5997 13.9 39.8464 13.7333 40.0464 13.52C40.2597 13.3067 40.4264 13.06 40.5464 12.78C40.6797 12.5 40.7464 12.2 40.7464 11.88C40.7464 11.56 40.6797 11.26 40.5464 10.98C40.4264 10.6867 40.2597 10.4333 40.0464 10.22C39.8464 10.0067 39.5997 9.84 39.3064 9.72C39.0264 9.6 38.7264 9.54 38.4064 9.54C38.0731 9.54 37.7597 9.6 37.4664 9.72C37.1864 9.84 36.9397 10.0067 36.7264 10.22C36.5264 10.4333 36.3664 10.68 36.2464 10.96C36.1264 11.2267 36.0664 11.52 36.0664 11.84ZM40.6264 6.74H44.2664V17H40.6264V15.86C39.8531 16.8333 38.8064 17.32 37.4864 17.32C36.7397 17.32 36.0531 17.1867 35.4264 16.92C34.7997 16.64 34.2531 16.2533 33.7864 15.76C33.3197 15.2667 32.9531 14.6867 32.6864 14.02C32.4331 13.3533 32.3064 12.6267 32.3064 11.84C32.3064 11.1067 32.4331 10.4133 32.6864 9.76C32.9397 9.09333 33.2931 8.51333 33.7464 8.02C34.1997 7.52667 34.7397 7.14 35.3664 6.86C35.9931 6.56667 36.6864 6.42 37.4464 6.42C38.7264 6.42 39.7864 6.86667 40.6264 7.76V6.74Z" fill="white"/>
<path d="M46.3498 15.08C46.3498 14.76 46.4098 14.46 46.5298 14.18C46.6498 13.8867 46.8165 13.6333 47.0298 13.42C47.2432 13.2067 47.4898 13.04 47.7698 12.92C48.0632 12.8 48.3698 12.74 48.6898 12.74C49.0098 12.74 49.3098 12.8 49.5898 12.92C49.8832 13.04 50.1365 13.2067 50.3498 13.42C50.5632 13.6333 50.7298 13.8867 50.8498 14.18C50.9698 14.46 51.0298 14.76 51.0298 15.08C51.0298 15.4 50.9698 15.7067 50.8498 16C50.7298 16.28 50.5632 16.5267 50.3498 16.74C50.1365 16.9533 49.8832 17.12 49.5898 17.24C49.3098 17.36 49.0098 17.42 48.6898 17.42C48.3698 17.42 48.0632 17.36 47.7698 17.24C47.4898 17.12 47.2432 16.9533 47.0298 16.74C46.8165 16.5267 46.6498 16.28 46.5298 16C46.4098 15.7067 46.3498 15.4 46.3498 15.08ZM60.8667 10.06C60.2401 9.63333 59.6067 9.42 58.9667 9.42C58.6201 9.42 58.2934 9.48 57.9867 9.6C57.6934 9.72 57.4334 9.89333 57.2067 10.12C56.9801 10.3333 56.8001 10.5933 56.6667 10.9C56.5467 11.1933 56.4867 11.5267 56.4867 11.9C56.4867 12.26 56.5467 12.5933 56.6667 12.9C56.8001 13.1933 56.9734 13.4533 57.1867 13.68C57.4134 13.8933 57.6801 14.06 57.9867 14.18C58.2934 14.3 58.6201 14.36 58.9667 14.36C59.6467 14.36 60.2801 14.1267 60.8667 13.66V16.74C59.9734 17.1267 59.1267 17.32 58.3267 17.32C57.5801 17.32 56.8667 17.1933 56.1867 16.94C55.5201 16.6867 54.9267 16.3267 54.4067 15.86C53.9001 15.38 53.4934 14.8133 53.1867 14.16C52.8801 13.4933 52.7267 12.7533 52.7267 11.94C52.7267 11.1267 52.8734 10.3867 53.1667 9.72C53.4601 9.04 53.8601 8.46 54.3667 7.98C54.8734 7.48667 55.4734 7.10667 56.1667 6.84C56.8734 6.56 57.6267 6.42 58.4267 6.42C59.3067 6.42 60.1201 6.60667 60.8667 6.98V10.06ZM66.1514 11.82C66.1514 12.1667 66.2114 12.4867 66.3314 12.78C66.4647 13.06 66.6314 13.3067 66.8314 13.52C67.0447 13.7333 67.2914 13.9 67.5714 14.02C67.8647 14.14 68.1714 14.2 68.4914 14.2C68.8114 14.2 69.1114 14.14 69.3914 14.02C69.6847 13.9 69.9314 13.7333 70.1314 13.52C70.3447 13.3067 70.5114 13.06 70.6314 12.78C70.7647 12.4867 70.8314 12.1733 70.8314 11.84C70.8314 11.52 70.7647 11.22 70.6314 10.94C70.5114 10.6467 70.3447 10.3933 70.1314 10.18C69.9314 9.96667 69.6847 9.8 69.3914 9.68C69.1114 9.56 68.8114 9.5 68.4914 9.5C68.1714 9.5 67.8647 9.56 67.5714 9.68C67.2914 9.8 67.0447 9.96667 66.8314 10.18C66.6314 10.3933 66.4647 10.64 66.3314 10.92C66.2114 11.2 66.1514 11.5 66.1514 11.82ZM62.3314 11.78C62.3314 11.02 62.4847 10.3133 62.7914 9.66C63.0981 8.99333 63.5247 8.42 64.0714 7.94C64.6181 7.44667 65.2647 7.06 66.0114 6.78C66.7714 6.5 67.5981 6.36 68.4914 6.36C69.3714 6.36 70.1847 6.5 70.9314 6.78C71.6914 7.04667 72.3447 7.42667 72.8914 7.92C73.4514 8.4 73.8847 8.98 74.1914 9.66C74.4981 10.3267 74.6514 11.0667 74.6514 11.88C74.6514 12.6933 74.4914 13.44 74.1714 14.12C73.8647 14.7867 73.4381 15.3667 72.8914 15.86C72.3447 16.34 71.6847 16.7133 70.9114 16.98C70.1514 17.2467 69.3247 17.38 68.4314 17.38C67.5514 17.38 66.7381 17.2467 65.9914 16.98C65.2447 16.7133 64.5981 16.3333 64.0514 15.84C63.5181 15.3467 63.0981 14.76 62.7914 14.08C62.4847 13.3867 62.3314 12.62 62.3314 11.78ZM76.5353 6.74H80.1553V8C81.142 7.05333 82.2486 6.58 83.4753 6.58C84.9953 6.58 86.1553 7.22 86.9553 8.5C87.7686 7.20667 88.9286 6.56 90.4353 6.56C90.9153 6.56 91.3686 6.63333 91.7953 6.78C92.222 6.91333 92.5886 7.13333 92.8953 7.44C93.202 7.73333 93.442 8.12 93.6153 8.6C93.802 9.08 93.8953 9.66 93.8953 10.34V17H90.2753V11.94C90.2753 11.42 90.2353 10.9933 90.1553 10.66C90.0886 10.3267 89.982 10.0667 89.8353 9.88C89.702 9.69333 89.542 9.56667 89.3553 9.5C89.1686 9.43333 88.9686 9.4 88.7553 9.4C87.5953 9.4 87.0153 10.2467 87.0153 11.94V17H83.3953V11.94C83.3953 11.42 83.362 10.9933 83.2953 10.66C83.2286 10.3133 83.1286 10.04 82.9953 9.84C82.8753 9.64 82.7153 9.50667 82.5153 9.44C82.3153 9.36 82.082 9.32 81.8153 9.32C81.5886 9.32 81.3753 9.35333 81.1753 9.42C80.9753 9.48667 80.7953 9.62 80.6353 9.82C80.4886 10.0067 80.3686 10.2733 80.2753 10.62C80.1953 10.9533 80.1553 11.3933 80.1553 11.94V17H76.5353V6.74Z" fill="#E45A19"/>
</svg>
