<svg width="73" height="24" viewBox="0 0 73 24" fill="none" xmlns="http://www.w3.org/2000/svg">
<path d="M6.26611 0.868006V23.488H0.386113V0.868006H6.26611ZM16.5716 18.508H17.9216C18.9416 18.508 19.8516 18.348 20.6516 18.028C21.4516 17.708 22.1216 17.268 22.6616 16.708C23.2216 16.148 23.6416 15.488 23.9216 14.728C24.2216 13.948 24.3716 13.098 24.3716 12.178C24.3716 11.278 24.2216 10.438 23.9216 9.65801C23.6216 8.87801 23.1916 8.20801 22.6316 7.64801C22.0916 7.08801 21.4216 6.64801 20.6216 6.32801C19.8216 6.00801 18.9216 5.84801 17.9216 5.84801H16.5716V18.508ZM10.6916 0.868006H19.3916C20.9316 0.868006 22.3716 1.17801 23.7116 1.79801C25.0716 2.41801 26.2516 3.24801 27.2516 4.28801C28.2716 5.30801 29.0716 6.50801 29.6516 7.88801C30.2316 9.24801 30.5216 10.678 30.5216 12.178C30.5216 13.658 30.2316 15.088 29.6516 16.468C29.0916 17.828 28.3016 19.028 27.2816 20.068C26.2816 21.108 25.1016 21.938 23.7416 22.558C22.4016 23.178 20.9516 23.488 19.3916 23.488H10.6916V0.868006ZM46.8456 5.84801H39.8556V9.62801H46.4556V14.608H39.8556V18.508H46.8456V23.488H33.9756V0.868006H46.8456V5.84801ZM63.0849 15.088L60.4449 7.55801L57.8049 15.088H63.0849ZM64.6449 19.558H56.2449L54.8949 23.488H48.6249L57.2349 0.868006H63.6549L72.2649 23.488H65.9949L64.6449 19.558Z" fill="white"/>
</svg>
