<svg width="83" height="83" viewBox="0 0 83 83" fill="none" xmlns="http://www.w3.org/2000/svg">
<path d="M83 39.5238C83 53.6865 68.392 83 47.144 83C25.896 83 0 64.8849 0 48.0873C0 31.2897 25.896 0 47.144 0C66.068 0 83 27.996 83 39.5238Z" fill="white"/>
<mask id="mask0" mask-type="alpha" maskUnits="userSpaceOnUse" x="12" y="8" width="67" height="67">
<circle cx="45.5819" cy="41.5" r="33.3361" fill="#C4C4C4"/>
</mask>
<g mask="url(#mask0)">
<path fill-rule="evenodd" clip-rule="evenodd" d="M45.7029 74.9569C64.1139 74.9569 79.0389 60.0318 79.0389 41.6208C79.0389 23.2098 64.1139 8.28474 45.7029 8.28474C27.2919 8.28474 12.3668 23.2098 12.3668 41.6208C12.3668 60.0318 27.2919 74.9569 45.7029 74.9569ZM45.888 53.844C52.5365 53.844 57.9261 48.4544 57.9261 41.806C57.9261 35.1576 52.5365 29.768 45.888 29.768C39.2396 29.768 33.85 35.1576 33.85 41.806C33.85 48.4544 39.2396 53.844 45.888 53.844Z" fill="url(#paint0_linear)"/>
<mask id="mask1" mask-type="alpha" maskUnits="userSpaceOnUse" x="12" y="8" width="68" height="67">
<circle cx="45.7028" cy="41.6207" r="33.3361" fill="url(#paint1_linear)"/>
</mask>
<g mask="url(#mask1)">
<circle cx="65.1992" cy="37.683" r="3.51881" transform="rotate(39.4662 65.1992 37.683)" fill="#BDF7FF"/>
<circle cx="49.5974" cy="17.8803" r="1.852" transform="rotate(39.4662 49.5974 17.8803)" fill="#D9D9D9"/>
<circle cx="24.6837" cy="51.3444" r="2.0372" transform="rotate(39.4662 24.6837 51.3444)" fill="#D7DAD7"/>
<rect x="56.8013" y="65.0737" width="7.77842" height="7.77842" transform="rotate(39.4662 56.8013 65.0737)" fill="#BCC8FF"/>
<rect x="23.2894" y="28.2716" width="8.51922" height="3.33361" transform="rotate(22.2603 23.2894 28.2716)" fill="#FCC7A0"/>
<path d="M57.3047 24.9865L61.6786 17.4032L65.9458 23.5834L57.3047 24.9865Z" fill="#EDBBFF"/>
<path d="M43.2249 61.8855L33.8928 64.9282L35.5444 55.7735L43.2249 61.8855Z" fill="#F4C09F"/>
</g>
</g>
<defs>
<linearGradient id="paint0_linear" x1="45.7029" y1="8.28474" x2="45.7029" y2="74.9569" gradientUnits="userSpaceOnUse">
<stop stop-color="#F473B3"/>
<stop offset="1" stop-color="#CC77DD"/>
</linearGradient>
<linearGradient id="paint1_linear" x1="45.7028" y1="8.28467" x2="45.7028" y2="74.9568" gradientUnits="userSpaceOnUse">
<stop stop-color="#F473B3"/>
<stop offset="1" stop-color="#CC77DD"/>
</linearGradient>
</defs>
</svg>
