<svg width="148" height="25" viewBox="0 0 148 25" fill="none" xmlns="http://www.w3.org/2000/svg">
<path d="M10.9661 6.296V23.936H5.08611V6.296H0.256113V1.316H15.7961V6.296H10.9661ZM29.3568 15.536L26.7168 8.006L24.0768 15.536H29.3568ZM30.9168 20.006H22.5168L21.1668 23.936H14.8968L23.5068 1.316H29.9268L38.5368 23.936H32.2668L30.9168 20.006ZM46.6896 10.646L53.8596 1.316H61.1196L52.1496 12.026L61.9596 23.936H54.3396L46.6896 14.126V23.936H40.8096V1.316H46.6896V10.646ZM77.1393 6.296H70.1493V10.076H76.7493V15.056H70.1493V18.956H77.1393V23.936H64.2693V1.316H77.1393V6.296ZM96.104 12.626C96.104 13.526 96.274 14.356 96.614 15.116C96.954 15.876 97.414 16.536 97.994 17.096C98.574 17.656 99.244 18.096 100.004 18.416C100.784 18.716 101.604 18.866 102.464 18.866C103.324 18.866 104.134 18.716 104.894 18.416C105.674 18.096 106.354 17.656 106.934 17.096C107.534 16.536 108.004 15.876 108.344 15.116C108.684 14.356 108.854 13.526 108.854 12.626C108.854 11.726 108.684 10.896 108.344 10.136C108.004 9.376 107.534 8.716 106.934 8.156C106.354 7.596 105.674 7.166 104.894 6.866C104.134 6.546 103.324 6.386 102.464 6.386C101.604 6.386 100.784 6.546 100.004 6.866C99.244 7.166 98.574 7.596 97.994 8.156C97.414 8.716 96.954 9.376 96.614 10.136C96.274 10.896 96.104 11.726 96.104 12.626ZM89.954 12.626C89.954 10.946 90.264 9.386 90.884 7.946C91.504 6.486 92.364 5.216 93.464 4.136C94.564 3.056 95.874 2.216 97.394 1.616C98.934 0.996004 100.624 0.686004 102.464 0.686004C104.284 0.686004 105.964 0.996004 107.504 1.616C109.044 2.216 110.364 3.056 111.464 4.136C112.584 5.216 113.454 6.486 114.074 7.946C114.694 9.386 115.004 10.946 115.004 12.626C115.004 14.306 114.694 15.876 114.074 17.336C113.454 18.776 112.584 20.036 111.464 21.116C110.364 22.196 109.044 23.046 107.504 23.666C105.964 24.266 104.284 24.566 102.464 24.566C100.624 24.566 98.934 24.266 97.394 23.666C95.874 23.046 94.564 22.196 93.464 21.116C92.364 20.036 91.504 18.776 90.884 17.336C90.264 15.876 89.954 14.306 89.954 12.626ZM131.378 6.296H124.298V10.076H130.748V15.056H124.298V23.936H118.418V1.316H131.378V6.296ZM147.543 6.296H140.463V10.076H146.913V15.056H140.463V23.936H134.583V1.316H147.543V6.296Z" fill="white"/>
</svg>
