<svg width="94" height="25" viewBox="0 0 94 25" fill="none" xmlns="http://www.w3.org/2000/svg">
<path d="M8.84611 13.18L0.596113 1.41999H7.61611L11.8161 7.59999L15.9861 1.41999H23.0061L14.7261 13.18V24.04H8.84611V13.18ZM28.2845 12.73C28.2845 13.63 28.4545 14.46 28.7945 15.22C29.1345 15.98 29.5945 16.64 30.1745 17.2C30.7545 17.76 31.4245 18.2 32.1845 18.52C32.9645 18.82 33.7845 18.97 34.6445 18.97C35.5045 18.97 36.3145 18.82 37.0745 18.52C37.8545 18.2 38.5345 17.76 39.1145 17.2C39.7145 16.64 40.1845 15.98 40.5245 15.22C40.8645 14.46 41.0345 13.63 41.0345 12.73C41.0345 11.83 40.8645 11 40.5245 10.24C40.1845 9.47999 39.7145 8.81999 39.1145 8.25999C38.5345 7.69999 37.8545 7.26999 37.0745 6.96999C36.3145 6.64999 35.5045 6.48999 34.6445 6.48999C33.7845 6.48999 32.9645 6.64999 32.1845 6.96999C31.4245 7.26999 30.7545 7.69999 30.1745 8.25999C29.5945 8.81999 29.1345 9.47999 28.7945 10.24C28.4545 11 28.2845 11.83 28.2845 12.73ZM22.1345 12.73C22.1345 11.05 22.4445 9.48999 23.0645 8.04999C23.6845 6.58999 24.5445 5.31999 25.6445 4.23999C26.7445 3.15999 28.0545 2.31999 29.5745 1.71999C31.1145 1.09999 32.8045 0.789992 34.6445 0.789992C36.4645 0.789992 38.1445 1.09999 39.6845 1.71999C41.2245 2.31999 42.5445 3.15999 43.6445 4.23999C44.7645 5.31999 45.6345 6.58999 46.2545 8.04999C46.8745 9.48999 47.1845 11.05 47.1845 12.73C47.1845 14.41 46.8745 15.98 46.2545 17.44C45.6345 18.88 44.7645 20.14 43.6445 21.22C42.5445 22.3 41.2245 23.15 39.6845 23.77C38.1445 24.37 36.4645 24.67 34.6445 24.67C32.8045 24.67 31.1145 24.37 29.5745 23.77C28.0545 23.15 26.7445 22.3 25.6445 21.22C24.5445 20.14 23.6845 18.88 23.0645 17.44C22.4445 15.98 22.1345 14.41 22.1345 12.73ZM56.4786 1.41999V13.72C56.4786 14.38 56.4986 15.06 56.5386 15.76C56.5986 16.44 56.7486 17.06 56.9886 17.62C57.2486 18.18 57.6486 18.64 58.1886 19C58.7286 19.34 59.4886 19.51 60.4686 19.51C61.4486 19.51 62.1986 19.34 62.7186 19C63.2586 18.64 63.6586 18.18 63.9186 17.62C64.1786 17.06 64.3286 16.44 64.3686 15.76C64.4286 15.06 64.4586 14.38 64.4586 13.72V1.41999H70.3086V14.53C70.3086 18.05 69.4986 20.62 67.8786 22.24C66.2786 23.86 63.8086 24.67 60.4686 24.67C57.1286 24.67 54.6486 23.86 53.0286 22.24C51.4086 20.62 50.5986 18.05 50.5986 14.53V1.41999H56.4786ZM80.6415 11.53H81.7515C82.9115 11.53 83.8015 11.29 84.4215 10.81C85.0415 10.33 85.3515 9.63999 85.3515 8.73999C85.3515 7.83999 85.0415 7.14999 84.4215 6.66999C83.8015 6.18999 82.9115 5.94999 81.7515 5.94999H80.6415V11.53ZM93.5715 24.04H86.2515L80.6415 15.34V24.04H74.7615V1.41999H83.9115C85.1715 1.41999 86.2715 1.60999 87.2115 1.98999C88.1515 2.34999 88.9215 2.84999 89.5215 3.48999C90.1415 4.12999 90.6015 4.86999 90.9015 5.70999C91.2215 6.54999 91.3815 7.44999 91.3815 8.40999C91.3815 10.13 90.9615 11.53 90.1215 12.61C89.3015 13.67 88.0815 14.39 86.4615 14.77L93.5715 24.04Z" fill="white"/>
</svg>
